HIERARCHY
ROOT Hips
{
	OFFSET 12.274321 99.969612 -113.809723
	CHANNELS 6 Xposition Yposition Zposition Xrotation Yrotation Zrotation
	JOINT LeftUpLeg
	{
		OFFSET 8.910002 -6.269997 0.000000
		CHANNELS 6 Xposition Yposition Zposition Xrotation Yrotation Zrotation
		JOINT LeftLeg
		{
			OFFSET -0.103842 -44.878361 -0.122574
			CHANNELS 6 Xposition Yposition Zposition Xrotation Yrotation Zrotation
			JOINT LeftFoot
			{
				OFFSET -0.094175 -40.700405 -0.191460
				CHANNELS 6 Xposition Yposition Zposition Xrotation Yrotation Zrotation
				JOINT LeftToeBase
				{
					OFFSET 0.000008 -6.262320 12.954727
					CHANNELS 6 Xposition Yposition Zposition Xrotation Yrotation Zrotation
					JOINT LeftToeBaseEnd
					{
						OFFSET -0.000135 -0.000000 8.000000
						CHANNELS 6 Xposition Yposition Zposition Xrotation Yrotation Zrotation
						End Site
						{
							OFFSET 0.000639 8.000002 0.000000
						}
					}
				}
			}
		}
	}
	JOINT RightUpLeg
	{
		OFFSET -8.910001 -6.269997 0.000000
		CHANNELS 6 Xposition Yposition Zposition Xrotation Yrotation Zrotation
		JOINT RightLeg
		{
			OFFSET -0.101007 -44.878124 0.191986
			CHANNELS 6 Xposition Yposition Zposition Xrotation Yrotation Zrotation
			JOINT RightFoot
			{
				OFFSET -0.091601 -40.700821 -0.052887
				CHANNELS 6 Xposition Yposition Zposition Xrotation Yrotation Zrotation
				JOINT RightToeBase
				{
					OFFSET -0.001086 -6.262319 12.954750
					CHANNELS 6 Xposition Yposition Zposition Xrotation Yrotation Zrotation
					JOINT RightToeBaseEnd
					{
						OFFSET -0.000851 -0.000407 8.000000
						CHANNELS 6 Xposition Yposition Zposition Xrotation Yrotation Zrotation
						End Site
						{
							OFFSET 0.000058 8.000002 0.000404
						}
					}
				}
			}
		}
	}
	JOINT Spine
	{
		OFFSET 0.000000 7.000000 0.000000
		CHANNELS 6 Xposition Yposition Zposition Xrotation Yrotation Zrotation
		JOINT Spine1
		{
			OFFSET -0.023388 12.548241 -1.727875
			CHANNELS 3 Xrotation Yrotation Zrotation
			JOINT Spine2
			{
				OFFSET -0.011827 12.636490 -0.873764
				CHANNELS 3 Xrotation Yrotation Zrotation
				JOINT LeftShoulder
				{
					OFFSET 6.999763 14.255325 -0.017601
					CHANNELS 6 Xposition Yposition Zposition Xrotation Yrotation Zrotation
					JOINT LeftArm
					{
						OFFSET 10.707253 0.000320 0.000000
						CHANNELS 6 Xposition Yposition Zposition Xrotation Yrotation Zrotation
						JOINT LeftForeArm
						{
							OFFSET 27.305473 0.000443 0.000008
							CHANNELS 6 Xposition Yposition Zposition Xrotation Yrotation Zrotation
							JOINT LeftHand
							{
								OFFSET 26.697151 0.000443 -0.000008
								CHANNELS 6 Xposition Yposition Zposition Xrotation Yrotation Zrotation
								JOINT LeftHandThumb1
								{
									OFFSET 4.348778 -0.793137 4.283417
									CHANNELS 6 Xposition Yposition Zposition Xrotation Yrotation Zrotation
									JOINT LeftHandThumb2
									{
										OFFSET 2.512596 -0.535187 0.708115
										CHANNELS 6 Xposition Yposition Zposition Xrotation Yrotation Zrotation
										JOINT LeftHandThumb3
										{
											OFFSET 2.543137 0.000046 0.000008
											CHANNELS 6 Xposition Yposition Zposition Xrotation Yrotation Zrotation
											JOINT LeftHandThumb4
											{
												OFFSET 2.666748 0.000061 -0.000008
												CHANNELS 6 Xposition Yposition Zposition Xrotation Yrotation Zrotation
												End Site
												{
													OFFSET -0.000061 2.666748 -0.003296
												}
											}
										}
									}
								}
								JOINT LeftHandIndex1
								{
									OFFSET 8.821976 0.204178 3.471420
									CHANNELS 6 Xposition Yposition Zposition Xrotation Yrotation Zrotation
									JOINT LeftHandIndex2
									{
										OFFSET 4.225319 0.000076 -0.000259
										CHANNELS 6 Xposition Yposition Zposition Xrotation Yrotation Zrotation
										JOINT LeftHandIndex3
										{
											OFFSET 2.652321 -0.000076 -0.092789
											CHANNELS 6 Xposition Yposition Zposition Xrotation Yrotation Zrotation
											JOINT LeftHandIndex4
											{
												OFFSET 1.953438 -0.000137 -0.136719
												CHANNELS 6 Xposition Yposition Zposition Xrotation Yrotation Zrotation
												End Site
												{
													OFFSET -0.000046 1.958221 -0.002419
												}
											}
										}
									}
								}
								JOINT LeftHandMiddle1
								{
									OFFSET 8.809875 0.502655 1.304062
									CHANNELS 6 Xposition Yposition Zposition Xrotation Yrotation Zrotation
									JOINT LeftHandMiddle2
									{
										OFFSET 4.863251 0.000076 0.000000
										CHANNELS 6 Xposition Yposition Zposition Xrotation Yrotation Zrotation
										JOINT LeftHandMiddle3
										{
											OFFSET 2.765236 0.000046 -0.000175
											CHANNELS 6 Xposition Yposition Zposition Xrotation Yrotation Zrotation
											JOINT LeftHandMiddle4
											{
												OFFSET 2.005630 0.000031 -0.000252
												CHANNELS 6 Xposition Yposition Zposition Xrotation Yrotation Zrotation
												End Site
												{
													OFFSET -0.000031 2.005630 -0.002480
												}
											}
										}
									}
								}
								JOINT LeftHandRing1
								{
									OFFSET 8.893753 0.379105 -0.793625
									CHANNELS 6 Xposition Yposition Zposition Xrotation Yrotation Zrotation
									JOINT LeftHandRing2
									{
										OFFSET 4.537758 0.000076 -0.000282
										CHANNELS 6 Xposition Yposition Zposition Xrotation Yrotation Zrotation
										JOINT LeftHandRing3
										{
											OFFSET 2.304527 0.000046 -0.000290
											CHANNELS 6 Xposition Yposition Zposition Xrotation Yrotation Zrotation
											JOINT LeftHandRing4
											{
												OFFSET 1.923347 0.000031 -0.000359
												CHANNELS 6 Xposition Yposition Zposition Xrotation Yrotation Zrotation
												End Site
												{
													OFFSET -0.000031 1.923340 -0.002373
												}
											}
										}
									}
								}
								JOINT LeftHandPinky1
								{
									OFFSET 8.882286 -0.315948 -2.489967
									CHANNELS 6 Xposition Yposition Zposition Xrotation Yrotation Zrotation
									JOINT LeftHandPinky2
									{
										OFFSET 3.044098 0.000046 0.000000
										CHANNELS 6 Xposition Yposition Zposition Xrotation Yrotation Zrotation
										JOINT LeftHandPinky3
										{
											OFFSET 1.974503 0.000000 0.000000
											CHANNELS 6 Xposition Yposition Zposition Xrotation Yrotation Zrotation
											JOINT LeftHandPinky4
											{
												OFFSET 1.666611 -0.000015 0.000000
												CHANNELS 6 Xposition Yposition Zposition Xrotation Yrotation Zrotation
												End Site
												{
													OFFSET 0.000038 1.666611 -0.002060
												}
											}
										}
									}
								}
							}
						}
					}
				}
				JOINT RightShoulder
				{
					OFFSET -7.000239 14.255096 -0.017601
					CHANNELS 6 Xposition Yposition Zposition Xrotation Yrotation Zrotation
					JOINT RightArm
					{
						OFFSET -10.707277 0.000244 0.000000
						CHANNELS 6 Xposition Yposition Zposition Xrotation Yrotation Zrotation
						JOINT RightForeArm
						{
							OFFSET -27.305599 -0.000458 0.000000
							CHANNELS 6 Xposition Yposition Zposition Xrotation Yrotation Zrotation
							JOINT RightHand
							{
								OFFSET -26.696995 0.002319 -0.000008
								CHANNELS 6 Xposition Yposition Zposition Xrotation Yrotation Zrotation
								JOINT RightHandThumb1
								{
									OFFSET -4.348450 -0.792847 4.283798
									CHANNELS 6 Xposition Yposition Zposition Xrotation Yrotation Zrotation
									JOINT RightHandThumb2
									{
										OFFSET -2.512577 -0.534988 0.708336
										CHANNELS 6 Xposition Yposition Zposition Xrotation Yrotation Zrotation
										JOINT RightHandThumb3
										{
											OFFSET -2.541588 0.000336 0.088821
											CHANNELS 6 Xposition Yposition Zposition Xrotation Yrotation Zrotation
											JOINT RightHandThumb4
											{
												OFFSET -2.665123 0.000320 0.093140
												CHANNELS 6 Xposition Yposition Zposition Xrotation Yrotation Zrotation
												End Site
												{
													OFFSET 0.000183 2.666748 -0.003296
												}
											}
										}
									}
								}
								JOINT RightHandIndex1
								{
									OFFSET -8.821651 0.204773 3.472191
									CHANNELS 6 Xposition Yposition Zposition Xrotation Yrotation Zrotation
									JOINT RightHandIndex2
									{
										OFFSET -4.225319 0.000366 0.000114
										CHANNELS 6 Xposition Yposition Zposition Xrotation Yrotation Zrotation
										JOINT RightHandIndex3
										{
											OFFSET -2.652321 0.000351 0.092697
											CHANNELS 6 Xposition Yposition Zposition Xrotation Yrotation Zrotation
											JOINT RightHandIndex4
											{
												OFFSET -1.953445 0.000336 0.136658
												CHANNELS 6 Xposition Yposition Zposition Xrotation Yrotation Zrotation
												End Site
												{
													OFFSET 0.000168 1.958221 -0.002419
												}
											}
										}
									}
								}
								JOINT RightHandMiddle1
								{
									OFFSET -8.809727 0.503265 1.304840
									CHANNELS 6 Xposition Yposition Zposition Xrotation Yrotation Zrotation
									JOINT RightHandMiddle2
									{
										OFFSET -4.863251 0.000427 0.000130
										CHANNELS 6 Xposition Yposition Zposition Xrotation Yrotation Zrotation
										JOINT RightHandMiddle3
										{
											OFFSET -2.763550 0.000366 0.096581
											CHANNELS 6 Xposition Yposition Zposition Xrotation Yrotation Zrotation
											JOINT RightHandMiddle4
											{
												OFFSET -2.000740 0.000351 0.139961
												CHANNELS 6 Xposition Yposition Zposition Xrotation Yrotation Zrotation
												End Site
												{
													OFFSET 0.000175 2.005630 -0.002480
												}
											}
										}
									}
								}
								JOINT RightHandRing1
								{
									OFFSET -8.893795 0.379715 -0.792847
									CHANNELS 6 Xposition Yposition Zposition Xrotation Yrotation Zrotation
									JOINT RightHandRing2
									{
										OFFSET -4.537766 0.000397 0.000122
										CHANNELS 6 Xposition Yposition Zposition Xrotation Yrotation Zrotation
										JOINT RightHandRing3
										{
											OFFSET -2.303116 0.000290 0.080490
											CHANNELS 6 Xposition Yposition Zposition Xrotation Yrotation Zrotation
											JOINT RightHandRing4
											{
												OFFSET -1.918663 0.000336 0.134224
												CHANNELS 6 Xposition Yposition Zposition Xrotation Yrotation Zrotation
												End Site
												{
													OFFSET 0.000160 1.923355 -0.002373
												}
											}
										}
									}
								}
								JOINT RightHandPinky1
								{
									OFFSET -8.882519 -0.315338 -2.489189
									CHANNELS 6 Xposition Yposition Zposition Xrotation Yrotation Zrotation
									JOINT RightHandPinky2
									{
										OFFSET -3.047798 0.000259 0.000084
										CHANNELS 6 Xposition Yposition Zposition Xrotation Yrotation Zrotation
										JOINT RightHandPinky3
										{
											OFFSET -1.975693 0.000244 0.069046
											CHANNELS 6 Xposition Yposition Zposition Xrotation Yrotation Zrotation
											JOINT RightHandPinky4
											{
												OFFSET -1.664574 0.000320 0.116447
												CHANNELS 6 Xposition Yposition Zposition Xrotation Yrotation Zrotation
												End Site
												{
													OFFSET 0.000214 1.668640 -0.002068
												}
											}
										}
									}
								}
							}
						}
					}
				}
				JOINT Neck
				{
					OFFSET -0.000212 12.666656 -0.015640
					CHANNELS 6 Xposition Yposition Zposition Xrotation Yrotation Zrotation
					JOINT Head
					{
						OFFSET 0.011088 9.988190 0.485672
						CHANNELS 3 Xrotation Yrotation Zrotation
						JOINT HeadEnd
						{
							OFFSET 0.000000 20.000000 0.000000
							CHANNELS 3 Xrotation Yrotation Zrotation
							End Site
							{
								OFFSET 0.000000 20.000000 0.000000
							}
						}
					}
				}
			}
		}
	}
}
MOTION
Frames: 3
Frame Time: 0.008333
12.088137 99.860229 -112.384247 1.134434 0.246582 -0.395294 8.910001 -6.269993 0.000005 3.810509 5.233836 13.813270 -0.103837 -44.878368 -0.122583 1.882427 -0.467269 0.282585 -0.094174 -40.700409 -0.191470 -5.194647 7.811496 -15.281724 0.000008 -6.262318 12.954722 0.099023 -0.000008 0.000002 -0.000138 -0.000000 7.999992 0.000000 0.000001 -0.000000 -8.910003 -6.270000 0.000012 4.885236 -2.026051 -15.619592 -0.101010 -44.878117 0.191995 -0.280274 0.379021 0.165204 -0.091603 -40.700825 -0.052872 -2.591560 -9.186542 19.531780 -0.001087 -6.262319 12.954748 -0.005942 -0.000000 -0.000000 -0.000845 -0.000406 8.000000 -0.000000 0.000000 -0.000000 -0.000001 6.999998 0.000007 -1.246982 -0.048864 1.150481 0.820799 -0.233741 -0.425493 0.818571 -0.215833 -0.455003 6.999763 14.255317 -0.017604 -0.953543 0.343436 -0.017189 10.707256 0.000324 -0.000002 -18.516281 -4.663201 3.710053 27.305489 0.000437 0.000003 -0.047213 -10.940412 0.030741 26.697151 0.000402 -0.000002 5.014673 33.567719 -17.915224 4.348768 -0.793123 4.283424 12.144662 2.832496 -28.385064 2.512613 -0.535202 0.708122 -0.605233 6.865532 -0.404816 2.543135 0.000051 0.000006 -0.605219 6.865537 -0.404806 2.666738 0.000064 -0.000023 -0.605223 6.865547 -0.404825 8.821968 0.204202 3.471426 -2.914356 -10.584680 -13.966839 4.225319 0.000054 -0.000250 -0.167969 -0.042065 -6.903566 2.652329 -0.000084 -0.092771 -0.168006 -0.042057 -6.904021 1.953418 -0.000110 -0.136716 -0.167944 -0.042080 -6.903999 8.809874 0.502664 1.304064 -1.240288 -3.774433 -13.809738 4.863253 0.000056 -0.000006 -0.167980 -0.042053 -6.903951 2.765223 0.000027 -0.000174 -0.167979 -0.042071 -6.904024 2.005655 0.000023 -0.000251 -0.167976 -0.042071 -6.904021 8.893738 0.379107 -0.793626 1.441507 7.224536 -13.975779 4.537757 0.000057 -0.000285 -0.167983 -0.042059 -6.904032 2.304533 0.000044 -0.000285 -0.167971 -0.042060 -6.904014 1.923363 0.000031 -0.000372 -0.167988 -0.042062 -6.904000 8.882286 -0.315942 -2.489973 3.611349 15.729466 -14.474472 3.044109 0.000048 0.000005 -0.167984 -0.042082 -6.904013 1.974493 -0.000006 -0.000005 -0.167971 -0.042068 -6.904038 1.666620 -0.000016 -0.000003 -0.167975 -0.042081 -6.903992 -7.000237 14.255109 -0.017606 -1.086337 0.691793 -2.779227 -10.707277 0.000227 -0.000002 -28.359779 -0.555971 -2.335982 -27.305603 -0.000456 0.000004 -0.075248 5.493624 -0.001869 -26.697002 0.002345 0.000003 -13.886621 -7.034977 -1.878720 -4.348454 -0.792877 4.283761 16.602566 -1.802595 34.521169 -2.512573 -0.534988 0.708345 -0.682576 -8.179374 0.468720 -2.541584 0.000356 0.088831 -0.682588 -8.179376 0.468723 -2.665159 0.000318 0.093127 -0.682568 -8.179373 0.468725 -8.821667 0.204765 3.472179 -2.832938 10.969188 16.729365 -4.225309 0.000348 0.000136 0.200839 0.032695 8.221320 -2.652313 0.000337 0.092688 0.200865 0.032712 8.221299 -1.953443 0.000347 0.136655 0.200825 0.032718 8.221319 -8.809731 0.503260 1.304837 -0.894919 4.484552 16.483675 -4.863264 0.000474 0.000156 0.200841 0.032696 8.221313 -2.763530 0.000378 0.096585 0.200840 0.032724 8.221296 -2.000743 0.000331 0.139965 0.200830 0.032721 8.221323 -8.893791 0.379703 -0.792853 0.943828 -1.777256 16.454943 -4.537774 0.000400 0.000134 0.200837 0.032717 8.221202 -2.303130 0.000331 0.080502 0.200839 0.032703 8.221307 -1.918665 0.000327 0.134221 0.200843 0.032696 8.221319 -8.882530 -0.315349 -2.489194 4.696572 -14.245759 17.010813 -3.047798 0.000239 0.000089 0.200827 0.032706 8.219835 -1.975688 0.000290 0.069044 0.200816 0.032692 8.221319 -1.664571 0.000314 0.116481 0.200843 0.032714 8.221308 -0.000212 12.666670 -0.015643 0.411401 -0.201109 0.921909 0.273522 0.846260 2.178357 0.000000 -0.000000 -0.000000 
12.096430 99.858910 -112.332947 1.171833 0.262495 -0.384860 8.910004 -6.269985 -0.000005 3.806528 5.243190 13.796588 -0.103836 -44.878357 -0.122575 1.860224 -0.467912 0.282331 -0.094183 -40.700401 -0.191461 -5.205968 7.805280 -15.276220 0.000013 -6.262319 12.954719 0.115590 -0.000009 0.000002 -0.000137 -0.000000 8.000000 -0.000000 0.000001 0.000000 -8.910000 -6.270001 0.000012 4.831763 -2.012239 -15.635722 -0.101007 -44.878124 0.191986 -0.172552 0.379158 0.164603 -0.091604 -40.700817 -0.052885 -2.668661 -9.207088 19.524215 -0.001084 -6.262319 12.954751 -0.002094 0.000000 -0.000001 -0.000849 -0.000406 7.999992 -0.000000 0.000000 -0.000000 0.000000 7.000000 0.000016 -1.335900 -0.055128 1.184529 0.786379 -0.248679 -0.445624 0.783950 -0.228509 -0.477184 6.999763 14.255329 -0.017612 -0.952186 0.337238 0.005572 10.707254 0.000338 -0.000020 -18.570852 -4.590971 3.689163 27.305477 0.000446 0.000019 -0.047171 -10.917967 0.030822 26.697170 0.000445 0.000015 4.845518 33.366068 -18.133509 4.348780 -0.793135 4.283433 12.144664 2.832498 -28.385062 2.512609 -0.535199 0.708114 -0.605230 6.865529 -0.404815 2.543127 0.000045 0.000012 -0.605219 6.865536 -0.404805 2.666783 0.000052 -0.000005 -0.605221 6.865543 -0.404831 8.821955 0.204177 3.471426 -2.914355 -10.584680 -13.966840 4.225330 0.000087 -0.000263 -0.167972 -0.042064 -6.903566 2.652331 -0.000104 -0.092782 -0.168007 -0.042056 -6.904016 1.953443 -0.000133 -0.136728 -0.167941 -0.042078 -6.904006 8.809880 0.502663 1.304062 -1.240286 -3.774434 -13.809737 4.863274 0.000054 -0.000016 -0.167981 -0.042052 -6.903954 2.765232 0.000050 -0.000195 -0.167980 -0.042074 -6.904021 2.005636 0.000014 -0.000241 -0.167978 -0.042072 -6.904018 8.893753 0.379107 -0.793620 1.441508 7.224537 -13.975780 4.537771 0.000036 -0.000279 -0.167983 -0.042061 -6.904029 2.304544 0.000053 -0.000290 -0.167975 -0.042061 -6.904011 1.923375 0.000031 -0.000367 -0.167987 -0.042063 -6.904003 8.882290 -0.315953 -2.489969 3.611349 15.729468 -14.474472 3.044121 0.000074 0.000018 -0.167980 -0.042083 -6.904014 1.974525 0.000006 0.000015 -0.167974 -0.042070 -6.904036 1.666621 -0.000024 0.000006 -0.167979 -0.042080 -6.903994 -7.000238 14.255096 -0.017609 -1.065110 0.758482 -2.786426 -10.707279 0.000244 -0.000017 -28.246024 -0.652988 -2.356355 -27.305605 -0.000430 0.000022 -0.075079 5.426695 -0.001931 -26.697006 0.002354 -0.000009 -13.580216 -7.265794 -1.800418 -4.348458 -0.792828 4.283795 16.602571 -1.802594 34.521166 -2.512578 -0.534990 0.708350 -0.682579 -8.179374 0.468718 -2.541578 0.000325 0.088820 -0.682588 -8.179373 0.468716 -2.665127 0.000351 0.093135 -0.682571 -8.179373 0.468721 -8.821676 0.204809 3.472204 -2.832937 10.969190 16.729363 -4.225300 0.000391 0.000118 0.200837 0.032693 8.221320 -2.652313 0.000339 0.092693 0.200858 0.032718 8.221302 -1.953428 0.000318 0.136645 0.200820 0.032718 8.221319 -8.809737 0.503303 1.304846 -0.894917 4.484552 16.483675 -4.863284 0.000415 0.000148 0.200841 0.032696 8.221313 -2.763535 0.000389 0.096593 0.200836 0.032726 8.221302 -2.000739 0.000324 0.139982 0.200826 0.032718 8.221325 -8.893796 0.379719 -0.792849 0.943828 -1.777256 16.454942 -4.537755 0.000387 0.000119 0.200842 0.032708 8.221219 -2.303117 0.000325 0.080459 0.200838 0.032703 8.221300 -1.918651 0.000320 0.134211 0.200838 0.032701 8.221317 -8.882534 -0.315312 -2.489182 4.696581 -14.245760 17.010813 -3.047799 0.000268 0.000113 0.200828 0.032706 8.219836 -1.975673 0.000264 0.069050 0.200813 0.032695 8.221315 -1.664572 0.000346 0.116464 0.200839 0.032715 8.221313 -0.000214 12.666686 -0.015647 0.401370 -0.138395 0.828611 0.301465 0.875443 2.116351 -0.000000 0.000000 -0.000000 
12.107957 99.857361 -112.298164 1.230395 0.264074 -0.372104 8.910001 -6.270006 -0.000010 3.767779 5.209294 13.772685 -0.103835 -44.878372 -0.122568 1.878108 -0.468455 0.282368 -0.094177 -40.700401 -0.191468 -5.217628 7.840775 -15.262561 -0.000005 -6.262319 12.954730 0.087257 -0.000007 0.000001 -0.000132 -0.000000 8.000000 0.000000 0.000000 -0.000000 -8.910001 -6.270010 -0.000002 4.794844 -2.026562 -15.654041 -0.101007 -44.878120 0.191990 -0.185256 0.379235 0.164797 -0.091607 -40.700817 -0.052886 -2.672915 -9.206177 19.520754 -0.001082 -6.262319 12.954748 0.007691 0.000000 0.000001 -0.000853 -0.000407 8.000008 -0.000000 0.000001 -0.000000 0.000000 7.000008 0.000007 -1.435297 -0.059016 1.234308 0.772030 -0.263977 -0.468524 0.769346 -0.241871 -0.502259 6.999761 14.255296 -0.017613 -0.932265 0.333397 0.055631 10.707252 0.000316 0.000012 -18.495550 -4.505953 3.620040 27.305485 0.000459 0.000015 -0.047105 -10.876233 0.030916 26.697166 0.000455 -0.000016 4.585655 33.135498 -18.208598 4.348782 -0.793163 4.283431 12.144665 2.832497 -28.385061 2.512606 -0.535164 0.708128 -0.605227 6.865533 -0.404814 2.543119 0.000057 0.000002 -0.605219 6.865538 -0.404804 2.666755 0.000056 -0.000000 -0.605222 6.865541 -0.404827 8.821995 0.204159 3.471423 -2.914354 -10.584680 -13.966840 4.225322 0.000097 -0.000240 -0.167975 -0.042066 -6.903570 2.652337 -0.000047 -0.092779 -0.168007 -0.042057 -6.904021 1.953441 -0.000128 -0.136727 -0.167941 -0.042078 -6.904003 8.809895 0.502651 1.304061 -1.240287 -3.774434 -13.809739 4.863274 0.000062 -0.000005 -0.167985 -0.042054 -6.903953 2.765238 0.000036 -0.000184 -0.167979 -0.042072 -6.904024 2.005654 0.000036 -0.000247 -0.167978 -0.042069 -6.904018 8.893764 0.379091 -0.793617 1.441508 7.224540 -13.975785 4.537753 0.000055 -0.000290 -0.167984 -0.042062 -6.904033 2.304542 0.000066 -0.000289 -0.167975 -0.042061 -6.904007 1.923365 0.000039 -0.000358 -0.167985 -0.042062 -6.904002 8.882317 -0.315956 -2.489973 3.611349 15.729468 -14.474475 3.044117 0.000061 0.000006 -0.167982 -0.042085 -6.904008 1.974492 0.000027 0.000025 -0.167971 -0.042071 -6.904041 1.666621 0.000007 0.000010 -0.167979 -0.042084 -6.903993 -7.000238 14.255109 -0.017601 -1.013473 0.811168 -2.824690 -10.707278 0.000272 -0.000005 -28.076512 -0.715816 -2.322845 -27.305599 -0.000448 0.000013 -0.074877 5.322110 -0.001997 -26.697001 0.002355 0.000014 -12.989822 -7.313392 -2.035641 -4.348465 -0.792835 4.283789 16.602569 -1.802594 34.521169 -2.512572 -0.535019 0.708329 -0.682579 -8.179370 0.468720 -2.541582 0.000380 0.088829 -0.682589 -8.179375 0.468722 -2.665133 0.000334 0.093134 -0.682571 -8.179374 0.468723 -8.821682 0.204796 3.472195 -2.832939 10.969191 16.729363 -4.225311 0.000378 0.000128 0.200838 0.032694 8.221319 -2.652319 0.000309 0.092685 0.200857 0.032713 8.221302 -1.953434 0.000358 0.136660 0.200826 0.032715 8.221315 -8.809731 0.503294 1.304848 -0.894918 4.484553 16.483675 -4.863260 0.000408 0.000155 0.200838 0.032696 8.221315 -2.763530 0.000346 0.096597 0.200837 0.032728 8.221296 -2.000740 0.000329 0.139984 0.200825 0.032724 8.221324 -8.893810 0.379738 -0.792823 0.943826 -1.777256 16.454943 -4.537771 0.000422 0.000130 0.200830 0.032711 8.221217 -2.303123 0.000335 0.080482 0.200836 0.032705 8.221301 -1.918664 0.000344 0.134202 0.200844 0.032699 8.221319 -8.882540 -0.315326 -2.489169 4.696575 -14.245760 17.010813 -3.047797 0.000268 0.000084 0.200826 0.032707 8.219833 -1.975699 0.000263 0.069038 0.200820 0.032692 8.221319 -1.664576 0.000347 0.116465 0.200841 0.032712 8.221311 -0.000214 12.666656 -0.015638 0.346336 -0.083194 0.717029 0.358824 0.935168 2.019644 0.000000 0.000000 0.000000 
